<svg width="21" height="21" viewBox="0 0 21 21" fill="none" xmlns="http://www.w3.org/2000/svg">
<path d="M5.09459 19.9595H15.9054C17.8649 20.2432 19.6757 18.8784 19.9595 16.9189C20.0135 16.5811 20.0135 16.2432 19.9595 15.9054V5.09459C20.2432 3.13513 18.8784 1.32432 16.9189 1.04054C16.5811 0.986486 16.2432 0.986486 15.9054 1.04054H5.09459C3.13513 0.756757 1.32432 2.12162 1.04054 4.08108C0.986486 4.41892 0.986486 4.75676 1.04054 5.09459V15.9054C0.756757 17.8649 2.12162 19.6757 4.08108 19.9595C4.41892 20.0135 4.75676 20.0135 5.09459 19.9595Z" stroke="white" stroke-width="1.5" stroke-linecap="round" stroke-linejoin="round"/>
<path d="M2 7H4.98795C6.6506 7 8 8.568 8 10.5C8 12.432 6.6506 14 4.98795 14H2" stroke="white" stroke-width="1.5" stroke-linecap="round" stroke-linejoin="round"/>
<path d="M20 8H16" stroke="white" stroke-width="1.5" stroke-linecap="round" stroke-linejoin="round"/>
<path d="M20 13H16" stroke="white" stroke-width="1.5" stroke-linecap="round" stroke-linejoin="round"/>
<path d="M4 11H5" stroke="white" stroke-width="1.5" stroke-linecap="round" stroke-linejoin="round"/>
</svg>
