<svg width="16" height="23" viewBox="0 0 16 23" fill="none" xmlns="http://www.w3.org/2000/svg">
<path d="M14.9996 12.1829V16.0679C14.9996 19.3439 11.9441 22.0004 8.1746 22.0004C4.40511 22.0004 1.34961 19.3439 1.34961 16.0679V12.1829C1.34961 15.4589 4.40511 17.8004 8.1746 17.8004C11.9441 17.8004 14.9996 15.4589 14.9996 12.1829Z" stroke="#888893" stroke-width="1.2" stroke-linecap="round" stroke-linejoin="round"/>
<path d="M14.9996 6.93301C14.9996 7.84651 14.7476 8.74951 14.2751 9.52651C12.8996 11.5215 10.5896 12.666 8.1746 12.5505C5.7596 12.666 3.44961 11.5215 2.07411 9.52651C1.60161 8.74951 1.34961 7.84651 1.34961 6.93301C1.37061 5.31601 2.10561 3.78301 3.34461 2.74351C4.68861 1.59902 6.4106 0.979517 8.1746 1.00052C9.9386 0.979517 11.6501 1.59902 13.0046 2.73302C14.2436 3.77251 14.9786 5.30551 14.9996 6.93301Z" stroke="#888893" stroke-width="1.2" stroke-linecap="round" stroke-linejoin="round"/>
<path d="M14.9996 6.93301V12.183C14.9996 15.459 11.9441 17.8005 8.1746 17.8005C4.40511 17.8005 1.34961 15.459 1.34961 12.183V6.93301C1.34961 3.65701 4.40511 1.00052 8.1746 1.00052C9.9386 0.979517 11.6501 1.59902 13.0046 2.73302C14.2436 3.77251 14.9786 5.30551 14.9996 6.93301Z" stroke="#888893" stroke-width="1.2" stroke-linecap="round" stroke-linejoin="round"/>
</svg>
