<svg width="48" height="48" viewBox="0 0 48 48" fill="none" xmlns="http://www.w3.org/2000/svg">
<rect x="0.5" y="0.5" width="47" height="47" rx="9.5" stroke="white" stroke-opacity="0.5"/>
<path d="M30.7818 18.6666C30.7818 18.6662 30.7816 18.6658 30.7813 18.6655C29.5616 17.677 28.0774 17.0976 26.529 17.0044C26.4784 17.0014 26.4294 17.0229 26.397 17.062C26.3217 17.1524 26.3654 17.2906 26.4782 17.3241C26.581 17.3547 26.6833 17.3869 26.785 17.4208C27.2073 17.5614 26.9703 18.0311 26.5351 17.9379C25.8235 17.7853 25.0987 17.6935 24.3679 17.6644C22.372 17.5851 20.3849 17.9761 18.5581 18.8076C18.4378 18.8653 18.3537 18.7319 18.4639 18.6568C19.4037 18.0161 20.4391 17.5343 21.5309 17.2317C21.6121 17.2092 21.6444 17.1107 21.5912 17.0454C21.568 17.0168 21.5326 17.001 21.4959 17.0032C20.4138 17.0658 19.3627 17.366 18.4109 17.8774C17.5839 18.3217 16.9979 19.0963 16.6396 19.964C15.9528 21.627 15.476 23.3719 15.2194 25.1559C14.963 26.939 15.4553 28.9046 17.0576 29.728C17.6205 30.0172 18.2249 30.2056 18.845 30.2871C19.2416 30.3392 19.9876 29.9736 20.2345 29.6588C20.2644 29.6208 20.2948 29.582 20.3256 29.5426C20.523 29.29 20.3948 28.9172 20.0992 28.7932C19.5055 28.5443 18.9663 28.1753 18.5138 27.7084C18.4162 27.6077 18.5508 27.4561 18.6657 27.5364C20.1293 28.3589 21.7524 28.8355 23.4172 28.9315C25.0819 29.0276 26.7466 28.7407 28.2903 28.0917C28.6535 27.9506 28.9252 28.3034 28.5904 28.5028C28.3871 28.6238 28.1752 28.73 27.9561 28.8203C27.6423 28.9496 27.5051 29.3459 27.7157 29.6122C27.8406 29.7701 27.9572 29.9164 28.0523 30.0352C28.2029 30.2235 28.4294 30.3382 28.6702 30.3273C29.4567 30.2919 30.2287 30.087 30.9359 29.7242C32.5396 28.9015 33.0395 26.938 32.7852 25.1535C32.464 22.9 31.7893 20.7087 30.782 18.6672C30.7819 18.667 30.7818 18.6668 30.7818 18.6666ZM22.6901 24.6799C22.7006 24.9018 22.6684 25.1238 22.5951 25.3329C22.5219 25.542 22.4092 25.734 22.2634 25.898C22.1177 26.0619 21.9418 26.1945 21.746 26.2881C21.5502 26.3817 21.3384 26.4344 21.1227 26.4432C20.6903 26.4102 20.2861 26.2101 19.9911 25.8831C19.6961 25.556 19.5321 25.1262 19.5321 24.6799C19.5321 24.2335 19.6961 23.8037 19.9911 23.4766C20.2861 23.1496 20.6903 22.9495 21.1227 22.9166H21.1479C21.5632 22.9383 21.9546 23.1231 22.2415 23.433C22.5284 23.743 22.6889 24.1543 22.6901 24.5825V24.6799ZM26.6105 26.1607C26.2065 26.1227 25.8322 25.9261 25.5653 25.6115C25.2984 25.297 25.1593 24.8888 25.1769 24.4715C25.1944 24.0542 25.3674 23.6599 25.6597 23.3704C25.9521 23.0809 26.3415 22.9184 26.7472 22.9166C26.9629 22.9253 27.1748 22.978 27.3706 23.0716C27.5664 23.1652 27.7422 23.2978 27.8879 23.4617C28.0337 23.6257 28.1464 23.8177 28.2197 24.0268C28.2929 24.2359 28.3252 24.4579 28.3146 24.6799C28.298 24.8926 28.2406 25.0999 28.1458 25.2897C28.051 25.4795 27.9206 25.6481 27.7622 25.7858C27.6037 25.9235 27.4204 26.0275 27.2227 26.0918C27.0251 26.1562 26.817 26.1796 26.6105 26.1607Z" fill="white"/>
</svg>
