<svg width="134" height="48" viewBox="0 0 134 48" fill="none" xmlns="http://www.w3.org/2000/svg">
<path d="M0 5C0 2.23858 2.23858 0 5 0H119C127.284 0 134 6.71573 134 15V43C134 45.7614 131.761 48 129 48H15C6.71573 48 0 41.2843 0 33V5Z" fill="white"/>
<path d="M27.2272 30V18.408H35.5432V20.298H29.6572V23.268H34.8772V25.14H29.6572V28.128H35.5432V30H27.2272ZM37.2291 30V21.468H39.4791L39.5691 22.278C39.9171 22.014 40.3551 21.786 40.8831 21.594C41.4231 21.39 41.9871 21.288 42.5751 21.288C43.7031 21.288 44.5251 21.552 45.0411 22.08C45.5571 22.608 45.8151 23.424 45.8151 24.528V30H43.3851V24.654C43.3851 24.078 43.2651 23.67 43.0251 23.43C42.7971 23.19 42.3651 23.07 41.7291 23.07C41.3571 23.07 40.9791 23.154 40.5951 23.322C40.2231 23.49 39.9111 23.7 39.6591 23.952V30H37.2291ZM51.1776 30.18C50.1936 30.18 49.4616 29.922 48.9816 29.406C48.5136 28.89 48.2796 28.188 48.2796 27.3V23.34H47.0736V21.468H48.2796V19.632L50.7096 18.912V21.468H52.8696L52.7256 23.34H50.7096V27.138C50.7096 27.606 50.8176 27.93 51.0336 28.11C51.2496 28.278 51.5856 28.362 52.0416 28.362C52.3776 28.362 52.7256 28.302 53.0856 28.182V29.856C52.8216 29.964 52.5336 30.042 52.2216 30.09C51.9096 30.15 51.5616 30.18 51.1776 30.18ZM58.7786 30.18C57.3026 30.18 56.1326 29.814 55.2686 29.082C54.4046 28.338 53.9726 27.216 53.9726 25.716C53.9726 24.36 54.3326 23.286 55.0526 22.494C55.7846 21.69 56.8706 21.288 58.3106 21.288C59.6306 21.288 60.6386 21.636 61.3346 22.332C62.0426 23.016 62.3966 23.916 62.3966 25.032V26.58H56.2226C56.3546 27.264 56.6666 27.732 57.1586 27.984C57.6626 28.236 58.3706 28.362 59.2826 28.362C59.7386 28.362 60.2006 28.32 60.6686 28.236C61.1486 28.152 61.5566 28.044 61.8926 27.912V29.64C61.4966 29.82 61.0346 29.952 60.5066 30.036C59.9786 30.132 59.4026 30.18 58.7786 30.18ZM56.2226 25.086H60.2726V24.618C60.2726 24.126 60.1286 23.742 59.8406 23.466C59.5526 23.178 59.0666 23.034 58.3826 23.034C57.5786 23.034 57.0146 23.196 56.6906 23.52C56.3786 23.844 56.2226 24.366 56.2226 25.086ZM64.0885 30V21.468H66.3385L66.4465 22.35C66.8305 22.11 67.3045 21.894 67.8685 21.702C68.4445 21.498 69.0085 21.36 69.5605 21.288V23.124C69.2365 23.172 68.8825 23.244 68.4985 23.34C68.1145 23.436 67.7485 23.544 67.4005 23.664C67.0525 23.784 66.7585 23.91 66.5185 24.042V30H64.0885ZM74.3984 30L78.8264 18.408H81.4904L85.9004 30H83.3804L82.2824 27.21H78.0164L76.9364 30H74.3984ZM78.3764 25.338H81.9224L80.1404 20.676L78.3764 25.338ZM87.5905 33.888V21.468H89.6965L89.8225 22.26C90.1945 21.948 90.6025 21.708 91.0465 21.54C91.4905 21.372 92.0125 21.288 92.6125 21.288C93.8605 21.288 94.8205 21.63 95.4925 22.314C96.1765 22.986 96.5185 24.09 96.5185 25.626C96.5185 27.162 96.1525 28.308 95.4205 29.064C94.7005 29.808 93.7165 30.18 92.4685 30.18C91.5085 30.18 90.6925 29.964 90.0205 29.532V33.888H87.5905ZM91.8565 28.398C92.5765 28.398 93.1225 28.176 93.4945 27.732C93.8665 27.288 94.0525 26.592 94.0525 25.644C94.0525 24.732 93.8845 24.078 93.5485 23.682C93.2125 23.274 92.6725 23.07 91.9285 23.07C91.1845 23.07 90.5485 23.328 90.0205 23.844V27.75C90.2725 27.942 90.5365 28.098 90.8125 28.218C91.1005 28.338 91.4485 28.398 91.8565 28.398ZM98.2076 33.888V21.468H100.314L100.44 22.26C100.812 21.948 101.22 21.708 101.664 21.54C102.108 21.372 102.63 21.288 103.23 21.288C104.478 21.288 105.438 21.63 106.11 22.314C106.794 22.986 107.136 24.09 107.136 25.626C107.136 27.162 106.77 28.308 106.038 29.064C105.318 29.808 104.334 30.18 103.086 30.18C102.126 30.18 101.31 29.964 100.638 29.532V33.888H98.2076ZM102.474 28.398C103.194 28.398 103.74 28.176 104.112 27.732C104.484 27.288 104.67 26.592 104.67 25.644C104.67 24.732 104.502 24.078 104.166 23.682C103.83 23.274 103.29 23.07 102.546 23.07C101.802 23.07 101.166 23.328 100.638 23.844V27.75C100.89 27.942 101.154 28.098 101.43 28.218C101.718 28.338 102.066 28.398 102.474 28.398Z" fill="#1B1941"/>
</svg>
