<svg width="249" height="112" viewBox="0 0 249 112" fill="none" xmlns="http://www.w3.org/2000/svg">
<path d="M181.7 2.05446C172.052 0.0321009 165.558 0 164.812 0L158.729 0.0242887C156.344 0.0338092 154.218 1.52529 153.396 3.76365L134.487 55.3098L116.502 104.332C115.137 108.055 117.892 112 121.857 112H211.086C214.375 112 217.007 109.218 216.493 105.969C214.037 90.4264 205.968 76.7441 194.422 67.0711C191.588 64.6971 187.398 66.0873 186.149 69.5664L181.283 83.1092H155.067L166.008 53.2714L174.508 30.1026C177.101 30.5681 179.654 31.1539 182.166 31.8601C194.006 35.3067 209.974 42.7306 223.783 58.7694C225.828 61.1449 229.373 61.6565 231.88 59.7753L245.935 49.2317C248.442 47.3503 248.973 43.7875 246.986 41.3619C230.279 20.956 207.248 7.1705 181.7 2.05446Z" fill="white"/>
<path d="M66.4972 109.946C76.1455 111.968 82.6392 112 83.3857 112L89.4688 111.976C91.8532 111.966 93.9801 110.475 94.8012 108.236L113.711 56.6902L131.696 7.66785C133.061 3.94549 130.306 7.47694e-06 126.34 7.13028e-06L37.1114 -6.70349e-07C33.8223 -9.57896e-07 31.1907 2.78207 31.7041 6.03058C34.1606 21.5736 42.2291 35.2559 53.7757 44.9288C56.6096 47.3029 60.7992 45.9127 62.0491 42.4336L66.9146 28.8908L93.1302 28.8908L82.1897 58.7286L73.6893 81.8974C71.0966 81.4319 68.5441 80.8461 66.0317 80.1399C54.1913 76.6933 38.2235 69.2694 24.415 53.2306C22.3698 50.8551 18.8251 50.3435 16.3175 52.2247L2.26297 62.7683C-0.244777 64.6496 -0.774883 68.2125 1.21111 70.6381C17.9189 91.044 40.9493 104.829 66.4972 109.946Z" fill="white"/>
</svg>
