<svg width="226" height="42" viewBox="0 0 226 42" fill="none" xmlns="http://www.w3.org/2000/svg">
<path d="M64.0896 2.92199C60.6887 2.20907 58.3998 2.19775 58.1367 2.19775L55.9925 2.20632C55.152 2.20967 54.4023 2.73545 54.1129 3.52451L47.4474 21.6956L41.1082 38.9769C40.6268 40.2891 41.5981 41.68 42.9958 41.68H74.4477C75.607 41.68 76.5346 40.6992 76.3537 39.5541C75.4878 34.0748 72.6438 29.2516 68.5737 25.8417C67.5748 25.0048 66.0981 25.4948 65.6575 26.7213L63.9425 31.4954H54.7019L58.5582 20.977L61.5545 12.8095C62.4684 12.9736 63.3681 13.1801 64.2537 13.4291C68.4273 14.6441 74.0557 17.2611 78.923 22.9151C79.6439 23.7525 80.8933 23.9329 81.7772 23.2697L86.7312 19.5529C87.6152 18.8897 87.802 17.6337 87.102 16.7786C81.2128 9.58516 73.0949 4.7255 64.0896 2.92199Z" fill="url(#paint0_linear_548_610)"/>
<path d="M23.4397 40.955C26.8406 41.6679 29.1295 41.6792 29.3926 41.6792L31.5368 41.6706C32.3773 41.6673 33.127 41.1415 33.4164 40.3524L40.0819 22.1814L46.4211 4.90004C46.9025 3.58784 45.9312 2.19698 44.5335 2.19698L13.0816 2.19698C11.9223 2.19698 10.9947 3.17771 11.1756 4.32287C12.0415 9.80211 14.8855 14.6254 18.9555 18.0353C19.9545 18.8722 21.4312 18.3821 21.8718 17.1557L23.5868 12.3816L32.8274 12.3816L28.9711 22.9L25.9748 31.0674C25.0609 30.9033 24.1612 30.6968 23.2756 30.4479C19.102 29.2329 13.4736 26.6158 8.60633 20.9618C7.88542 20.1244 6.63595 19.9441 5.75208 20.6072L0.798059 24.3241C-0.0858826 24.9873 -0.272742 26.2432 0.427293 27.0983C6.31654 34.2918 14.4344 39.1515 23.4397 40.955Z" fill="url(#paint1_linear_548_610)"/>
<path d="M125.797 13.0999H125.572C124.177 11.0741 121.612 9.54358 118.372 9.54358C112.026 9.49856 107.661 14.5404 107.661 21.473C107.661 28.5407 112.251 33.3124 118.327 33.3124C121.612 33.2674 124.177 31.7369 125.572 29.6661H125.797V33.5375C125.797 34.843 124.987 35.5633 123.682 35.5633H113.625C111.947 35.5633 110.586 36.9237 110.586 38.6019C110.586 40.2801 111.947 41.6406 113.625 41.6406H124.987C129.352 41.6406 131.827 39.2547 131.827 34.9331V13.2339C131.827 11.5687 130.477 10.2188 128.812 10.2188H128.678C127.087 10.2188 125.797 11.5087 125.797 13.0999ZM119.812 27.5503C116.256 27.5503 113.781 24.9393 113.781 21.428C113.781 17.9167 116.256 15.3057 119.812 15.3057C123.322 15.3057 125.797 17.9617 125.797 21.428C125.797 24.7593 123.412 27.5503 119.812 27.5503Z" fill="white"/>
<path d="M136.338 26.1548C136.338 30.2063 138.768 32.6372 143.043 32.6372H144.28C145.908 32.6372 147.228 31.3171 147.228 29.6886C147.228 28.0601 145.908 26.74 144.28 26.74H144.213C143.088 26.74 142.413 26.1098 142.413 25.0744V3.26272C142.413 1.58509 141.053 0.225098 139.375 0.225098C137.698 0.225098 136.338 1.58508 136.338 3.26271V26.1548Z" fill="white"/>
<path d="M215.281 9.54358C212.085 9.54358 209.475 11.0741 208.08 13.0999H207.855C207.855 11.5087 206.565 10.2188 204.974 10.2188H204.84C203.175 10.2188 201.825 11.5687 201.825 13.2339V38.6254C201.825 40.2906 203.175 41.6406 204.84 41.6406C206.505 41.6406 207.855 40.2906 207.855 38.6254V29.6661H208.08C209.475 31.7369 212.04 33.2674 215.326 33.3124C221.401 33.3124 225.991 28.5407 225.991 21.473C225.991 14.5404 221.626 9.49856 215.281 9.54358ZM213.841 27.5503C210.24 27.5503 207.855 24.7593 207.855 21.428C207.855 17.9617 210.33 15.3057 213.841 15.3057C217.396 15.3057 219.871 17.9167 219.871 21.428C219.871 24.9393 217.396 27.5503 213.841 27.5503Z" fill="white"/>
<path d="M186.741 9.43305C183.604 9.43305 180.571 10.6661 178.413 12.8173L177.044 14.036C175.15 15.7223 172.293 15.7235 170.398 14.0388L169.133 12.9151C166.88 10.6685 163.89 9.43066 160.707 9.43066C154.115 9.43066 148.753 14.7993 148.753 21.3985C148.753 27.9978 154.115 33.3664 160.707 33.3664C163.845 33.3664 166.878 32.1333 169.036 29.9821L170.405 28.7635C172.299 27.0771 175.156 27.076 177.051 28.7608L178.318 29.8867C180.578 32.119 183.568 33.3497 186.741 33.3497C193.334 33.3497 198.696 27.9906 198.696 21.4009C198.696 14.8112 193.334 9.43305 186.741 9.43305ZM192.143 21.4009C192.143 24.3678 189.72 26.7838 186.741 26.7838C185.276 26.7838 183.929 26.2114 182.85 25.1262C180.616 23.1426 180.638 19.6337 182.871 17.6493L182.928 17.5945C183.941 16.5761 185.295 16.018 186.741 16.018C189.72 16.018 192.143 18.4316 192.143 21.4009ZM164.578 25.1501L164.521 25.2049C163.508 26.2209 162.154 26.7814 160.71 26.7814C157.731 26.7814 155.308 24.3678 155.308 21.3985C155.308 18.4292 157.731 16.0156 160.71 16.0156C162.175 16.0156 163.522 16.588 164.601 17.6732C166.835 19.6566 166.811 23.1665 164.578 25.1501Z" fill="white"/>
<defs>
<linearGradient id="paint0_linear_548_610" x1="64.2231" y1="2.19775" x2="97.9222" y2="15.9272" gradientUnits="userSpaceOnUse">
<stop stop-color="#19FB80"/>
<stop offset="1" stop-color="#13BA5E"/>
</linearGradient>
<linearGradient id="paint1_linear_548_610" x1="23.307" y1="41.6792" x2="-10.3921" y2="27.9497" gradientUnits="userSpaceOnUse">
<stop stop-color="#19FB80"/>
<stop offset="1" stop-color="#13BA5E"/>
</linearGradient>
</defs>
</svg>
