<svg width="29" height="29" viewBox="0 0 29 29" fill="none" xmlns="http://www.w3.org/2000/svg">
<path d="M1.5736 21.0752L1.34696 20.64H5.14602L5.23951 20.772C6.62729 22.8099 8.65075 24.3317 10.9933 25.1004C13.3359 25.8692 15.8666 25.8418 18.192 25.0225C20.5174 24.2033 22.5061 22.6381 23.8495 20.5707C25.1929 18.5033 25.8148 16.0497 25.6187 13.592L18.8365 13.5804L20.8168 19.1808L18.3917 22.5126L14.0445 10.1753L28.3554 10.2029L28.4177 10.4205C28.5812 10.9641 28.7087 11.518 28.7988 12.0784C28.9362 12.8792 29.0027 13.6904 28.9999 14.5029C28.9951 17.9274 27.7809 21.2402 25.5706 23.8558C23.3602 26.4715 20.2972 28.2218 16.9214 28.7977C16.1077 28.9294 15.2838 28.9971 14.4595 29C11.7884 29.0019 9.16926 28.262 6.89398 26.8628C4.6187 25.4635 2.77698 23.4599 1.5736 21.0752ZM4.01281 18.7594H0.616042L0.557965 18.5419C0.403247 18.0053 0.283468 17.4592 0.19959 16.9071C-0.372448 13.4931 0.294418 9.98715 2.08071 7.02207C3.86699 4.05698 6.65542 1.82822 9.94088 0.738166C13.2263 -0.351885 16.7922 -0.231399 19.9966 1.07786C23.201 2.38713 25.8327 4.79887 27.4149 7.87773L27.6401 8.3129H23.8184L23.7249 8.1809C22.3345 6.14698 20.3112 4.62905 17.9696 3.86281C15.6281 3.09657 13.099 3.12491 10.7752 3.94342C8.45141 4.76192 6.46216 6.3248 5.11769 8.38935C3.77322 10.4539 3.14879 12.9046 3.33998 15.3609L10.1505 15.3725L8.17025 9.77208L10.6066 6.44028L14.9411 18.7776L4.01281 18.7594Z" fill="url(#paint0_linear_548_948)"/>
<defs>
<linearGradient id="paint0_linear_548_948" x1="23.2" y1="2.523" x2="6.525" y2="26.39" gradientUnits="userSpaceOnUse">
<stop stop-color="#03D1CF" stop-opacity="0.988"/>
<stop offset="1" stop-color="#4E09F8"/>
</linearGradient>
</defs>
</svg>
