<?xml version="1.0" standalone="no"?><!DOCTYPE svg PUBLIC "-//W3C//DTD SVG 1.1//EN" "http://www.w3.org/Graphics/SVG/1.1/DTD/svg11.dtd"><svg t="1668130250600" class="icon" viewBox="0 0 1280 1024" version="1.1" xmlns="http://www.w3.org/2000/svg" p-id="6172" width="300" height="240" xmlns:xlink="http://www.w3.org/1999/xlink"><path d="M1248 896h-160V226.9C1088 172.38 1044.94 128 992 128H768v128h192v768h288c17.68 0 32-14.32 32-32v-64c0-17.68-14.32-32-32-32zM624.48 2.02l-384 99.48C211.98 108.88 192 135.4 192 165.84V896H32c-17.68 0-32 14.32-32 32v64c0 17.68 14.32 32 32 32h672V66.36c0-43.16-39.12-74.82-79.52-64.34zM528 576c-26.5 0-48-28.66-48-64s21.5-64 48-64 48 28.66 48 64-21.5 64-48 64z" p-id="6173" fill="#19fa28"></path></svg>