<svg width="31" height="31" viewBox="0 0 31 31" fill="none" xmlns="http://www.w3.org/2000/svg">
<path d="M10.9858 29.3192H19.3441C26.3094 29.3192 29.0955 26.533 29.0955 19.5678V11.2094C29.0955 4.24412 26.3094 1.45801 19.3441 1.45801H10.9858C4.02049 1.45801 1.23438 4.24412 1.23438 11.2094V19.5678C1.23438 26.533 4.02049 29.3192 10.9858 29.3192Z" stroke="url(#paint0_linear_548_715)" stroke-width="2" stroke-linecap="round" stroke-linejoin="round"/>
<path d="M9.59108 25.1398H20.7355C22.7555 25.4324 24.6222 24.0254 24.9147 22.0054C24.9704 21.6572 24.9704 21.3089 24.9147 20.9606V9.81618C25.2073 7.79625 23.8003 5.92955 21.7803 5.63701C21.4321 5.58128 21.0838 5.58128 20.7355 5.63701H9.59108C7.57115 5.34446 5.70445 6.75145 5.41191 8.77139C5.35619 9.11965 5.35619 9.46792 5.41191 9.81618V20.9606C5.11937 22.9806 6.52636 24.8473 8.54629 25.1398C8.89455 25.1955 9.24282 25.1955 9.59108 25.1398Z" stroke="url(#paint1_linear_548_715)" stroke-width="2" stroke-linecap="round" stroke-linejoin="round"/>
<path d="M5.41699 11.906H8.87178C10.7942 11.906 12.3544 13.4662 12.3544 15.3887C12.3544 17.3111 10.7942 18.8713 8.87178 18.8713H5.41699" stroke="url(#paint2_linear_548_715)" stroke-width="2" stroke-linecap="round" stroke-linejoin="round"/>
<path d="M24.9175 12.5884H20.7383" stroke="url(#paint3_linear_548_715)" stroke-width="2" stroke-linecap="round" stroke-linejoin="round"/>
<path d="M24.9175 18.1748H20.7383" stroke="url(#paint4_linear_548_715)" stroke-width="2" stroke-linecap="round" stroke-linejoin="round"/>
<path d="M8.47949 15.3887H8.61949" stroke="url(#paint5_linear_548_715)" stroke-width="2" stroke-linecap="round" stroke-linejoin="round"/>
<defs>
<linearGradient id="paint0_linear_548_715" x1="15.165" y1="1.458" x2="15.388" y2="29.324" gradientUnits="userSpaceOnUse">
<stop stop-color="#19FB80"/>
<stop offset="1" stop-color="#13BA5E"/>
</linearGradient>
<linearGradient id="paint1_linear_548_715" x1="15.1633" y1="5.59521" x2="15.3201" y2="25.185" gradientUnits="userSpaceOnUse">
<stop stop-color="#19FB80"/>
<stop offset="1" stop-color="#13BA5E"/>
</linearGradient>
<linearGradient id="paint2_linear_548_715" x1="8.88571" y1="11.906" x2="8.94169" y2="18.8725" gradientUnits="userSpaceOnUse">
<stop stop-color="#19FB80"/>
<stop offset="1" stop-color="#13BA5E"/>
</linearGradient>
<linearGradient id="paint3_linear_548_715" x1="22.8279" y1="12.5884" x2="22.8298" y2="13.5886" gradientUnits="userSpaceOnUse">
<stop stop-color="#19FB80"/>
<stop offset="1" stop-color="#13BA5E"/>
</linearGradient>
<linearGradient id="paint4_linear_548_715" x1="22.8279" y1="18.1748" x2="22.8298" y2="19.175" gradientUnits="userSpaceOnUse">
<stop stop-color="#19FB80"/>
<stop offset="1" stop-color="#13BA5E"/>
</linearGradient>
<linearGradient id="paint5_linear_548_715" x1="8.54949" y1="15.3887" x2="8.60649" y2="16.3857" gradientUnits="userSpaceOnUse">
<stop stop-color="#19FB80"/>
<stop offset="1" stop-color="#13BA5E"/>
</linearGradient>
</defs>
</svg>
