<svg width="22" height="24" viewBox="0 0 22 24" fill="none" xmlns="http://www.w3.org/2000/svg">
<path d="M19.6081 11.1797V6.51676C19.6081 2.10554 18.5792 1 14.4416 1H6.16649C2.02892 1 1 2.10554 1 6.51676V18.8419C1 21.7535 2.59811 22.4431 4.53554 20.3634C5.22514 19.5424 6.45108 19.4549 7.25014 20.1554C7.37054 20.2649 7.48 20.3853 7.57851 20.5166L8.68405 21.9943" stroke="white" stroke-width="1.5" stroke-linecap="round" stroke-linejoin="round"/>
<path d="M20.5933 18.7324C20.5933 20.6699 19.028 22.2351 17.0906 22.2351C15.1532 22.2351 13.5879 20.6699 13.5879 18.7324C13.5879 16.795 15.1532 15.2297 17.0906 15.2297C19.028 15.2297 20.5933 16.795 20.5933 18.7324Z" stroke="white" stroke-width="1.5" stroke-linecap="round" stroke-linejoin="round"/>
<path d="M21.2499 22.892L20.1553 21.7974" stroke="white" stroke-width="1.5" stroke-linecap="round" stroke-linejoin="round"/>
<path d="M5.92578 6.4729H14.6825" stroke="white" stroke-width="1.5" stroke-linecap="round" stroke-linejoin="round"/>
<path d="M7.02051 10.8513H13.5881" stroke="white" stroke-width="1.5" stroke-linecap="round" stroke-linejoin="round"/>
</svg>
