<svg width="16" height="22" viewBox="0 0 16 22" fill="none" xmlns="http://www.w3.org/2000/svg">
<path d="M7.80542 9.89304C7.69542 9.88304 7.58542 9.88304 7.47542 9.89304C5.02542 9.80304 3.10542 7.74304 3.19542 5.28304C3.29542 2.83304 5.35542 0.913039 7.80542 1.00304C10.2554 1.09304 12.1754 3.15304 12.0854 5.61304C11.9954 7.94304 10.1354 9.80304 7.80542 9.89304Z" stroke="white" stroke-width="1.5" stroke-linecap="round" stroke-linejoin="round"/>
<path d="M2.815 13.5829C0.395 15.2029 0.395 17.8429 2.815 19.453C5.895 21.293 9.745 21.293 12.825 19.453C15.245 17.8329 15.245 15.1929 12.825 13.5829C9.735 11.7529 5.905 11.7529 2.815 13.5829V13.5829Z" stroke="white" stroke-width="1.5" stroke-linecap="round" stroke-linejoin="round"/>
</svg>
