<svg width="22" height="21" viewBox="0 0 22 21" fill="none" xmlns="http://www.w3.org/2000/svg">
<path d="M9.76035 14.3601V16.3901C9.62035 18.2301 8.03035 19.6201 6.19035 19.5001C4.35035 19.6201 2.75035 18.2301 2.61035 16.3901V14.3601C2.61035 16.0801 4.21035 17.3001 6.19035 17.3001C8.17035 17.3001 9.76035 16.0701 9.76035 14.3601V14.3601Z" stroke="white" stroke-width="1.5" stroke-linecap="round" stroke-linejoin="round"/>
<path d="M9.76059 11.61C9.76059 12.09 9.63059 12.56 9.38059 12.97C8.66059 14.01 7.45059 14.61 6.18059 14.55C4.91059 14.61 3.71059 14.01 2.98059 12.97C2.73059 12.56 2.60059 12.09 2.60059 11.61C2.61059 10.76 2.99059 9.95999 3.64059 9.41999C4.35059 8.81999 5.24059 8.49999 6.17059 8.50999C7.10059 8.50999 7.99059 8.81999 8.70059 9.41999C9.36059 9.94999 9.75059 10.76 9.76059 11.61V11.61Z" stroke="white" stroke-width="1.5" stroke-linecap="round" stroke-linejoin="round"/>
<path d="M9.76035 11.6099V14.3599C9.76035 16.0799 8.16035 17.2999 6.19035 17.2999C4.22035 17.2999 2.61035 16.0699 2.61035 14.3599V11.6099C2.75035 9.7699 4.35035 8.3799 6.19035 8.4999C7.12035 8.4999 8.01035 8.8099 8.72035 9.4099C9.37035 9.9599 9.75035 10.7599 9.76035 11.6099V11.6099Z" stroke="white" stroke-width="1.5" stroke-linecap="round" stroke-linejoin="round"/>
<path d="M21.0106 8.46995V10.53C21.0106 11.08 20.5606 11.54 20.0106 11.55H18.0506C16.9606 11.57 16.0206 10.76 15.8906 9.67995C15.8306 9.06995 16.0506 8.46995 16.4906 8.04995C16.8706 7.65995 17.3906 7.44995 17.9306 7.44995H20.0106C20.5606 7.45995 21.0106 7.91995 21.0106 8.46995V8.46995Z" stroke="white" stroke-width="1.5" stroke-linecap="round" stroke-linejoin="round"/>
<path d="M1.01078 8V6C0.840782 3.49 2.70078 1.31 5.20078 1.06C5.47078 1.02 5.74078 1 6.01078 1H15.0108C15.2608 1 15.5108 1.01 15.7608 1.05C18.2908 1.27 20.1808 3.47 20.0108 6V7.45H17.9308C16.7908 7.45 15.8808 8.39 15.8808 9.52C15.8808 9.57 15.8808 9.62 15.8808 9.68C16.0108 10.76 16.9508 11.57 18.0408 11.55H20.0008V13C20.1608 15.6 18.1708 17.84 15.5708 18C15.3808 18.01 15.1908 18.01 15.0008 18H12.5008" stroke="white" stroke-width="1.5" stroke-linecap="round" stroke-linejoin="round"/>
</svg>
