<svg width="48" height="48" viewBox="0 0 48 48" fill="none" xmlns="http://www.w3.org/2000/svg">
<rect x="0.5" y="0.5" width="47" height="47" rx="9.5" stroke="white" stroke-opacity="0.5"/>
<path d="M31.1545 20.738C31.1555 20.738 31.1563 20.7387 31.1564 20.7397C31.1676 20.903 31.1676 21.0673 31.1676 21.2306C31.1859 24.0671 30.1054 26.7949 28.1637 28.8144C26.2221 30.8339 23.5782 31.9797 20.8133 32H20.6682C18.9551 32.004 17.2722 31.5751 15.766 30.7575C15.5676 30.6498 15.6661 30.3462 15.8918 30.3446C16.7844 30.3469 17.6634 30.1834 18.4884 29.8684C19.2173 29.5901 18.9596 28.4532 18.3387 27.9808C17.9045 27.6505 17.5485 27.2282 17.2929 26.7458C17.1425 26.4621 17.3989 26.1574 17.72 26.1594C17.9657 26.1589 17.9864 25.816 17.768 25.7036C17.3075 25.4665 16.8971 25.1314 16.5663 24.7165C16.0269 24.04 15.7322 23.1929 15.7321 22.3189C15.7321 22.2995 15.7531 22.2873 15.7701 22.2967C15.9269 22.384 16.0892 22.4594 16.2557 22.5225C16.5716 22.6422 16.7566 22.2219 16.5498 21.9548C16.2123 21.5188 15.9695 21.0081 15.8443 20.4564C15.5415 19.1219 17.2013 18.8604 18.3059 19.6681C18.7304 19.9786 19.1779 20.2569 19.6451 20.5002C20.6961 21.0479 21.8278 21.4089 22.9919 21.5701C23.4292 21.6307 23.772 21.2273 23.7698 20.7859C23.7707 20.0265 23.9939 19.2849 24.4105 18.6571C24.8271 18.0294 25.4179 17.5446 26.1063 17.2654C26.7947 16.9863 27.549 16.9256 28.2713 17.0915C28.8517 17.2247 29.3899 17.4991 29.8419 17.8889C30.0489 18.0674 30.3222 18.1661 30.5865 18.0964C30.938 18.0038 31.2821 17.8843 31.6157 17.7392C31.932 17.6016 32.2648 17.8894 32.08 18.1806C31.9995 18.3075 31.9116 18.4293 31.8169 18.5453C31.6304 18.7737 31.8197 19.1983 32.1023 19.114C32.3668 19.0352 32.6014 19.333 32.4219 19.5427C32.043 19.9853 31.6178 20.3851 31.1534 20.7347C31.152 20.7357 31.1527 20.738 31.1545 20.738Z" fill="white"/>
</svg>
