<svg width="22" height="22" viewBox="0 0 22 22" fill="none" xmlns="http://www.w3.org/2000/svg">
<path d="M4.89952 16H17.0895C18.5095 16.18 19.8095 15.18 19.9895 13.76C20.0195 13.54 20.0195 13.32 19.9895 13.1V1H1.98952V13.1C1.80952 14.52 2.81952 15.82 4.24952 16C4.46952 16.03 4.67952 16.03 4.89952 16Z" stroke="#888893" stroke-width="1.2" stroke-linecap="round" stroke-linejoin="round"/>
<path d="M1 1H21" stroke="#888893" stroke-width="1.2" stroke-linecap="round" stroke-linejoin="round"/>
<path d="M7.00098 21L11.001 19V16" stroke="#888893" stroke-width="1.2" stroke-linecap="round" stroke-linejoin="round"/>
<path d="M15 21L11 19" stroke="#888893" stroke-width="1.2" stroke-linecap="round" stroke-linejoin="round"/>
<path d="M6.5 10L9.65 7.37C9.85 7.19 10.15 7.21 10.33 7.4C10.36 7.43 10.38 7.46 10.4 7.5L11.6 9.5C11.73 9.74 12.03 9.82 12.26 9.69C12.29 9.67 12.32 9.65 12.35 9.63L15.5 7" stroke="#888893" stroke-width="1.2" stroke-linecap="round" stroke-linejoin="round"/>
</svg>
