<svg width="22" height="19" viewBox="0 0 22 19" fill="none" xmlns="http://www.w3.org/2000/svg">
<path d="M11.7598 6.5H5.75977" stroke="#888893" stroke-width="1.2" stroke-linecap="round" stroke-linejoin="round"/>
<path d="M20.7596 8.46995V10.53C20.7596 11.08 20.3096 11.54 19.7596 11.55H17.7996C16.7096 11.57 15.7696 10.76 15.6396 9.67995C15.5796 9.06995 15.7996 8.46995 16.2396 8.04995C16.6196 7.65995 17.1396 7.44995 17.6796 7.44995H19.7596C20.3096 7.45995 20.7596 7.91995 20.7596 8.46995V8.46995Z" stroke="#888893" stroke-width="1.2" stroke-linecap="round" stroke-linejoin="round"/>
<path d="M16.2398 8.05C15.7998 8.47 15.5798 9.07 15.6398 9.68C15.7698 10.76 16.7098 11.57 17.7998 11.55H19.7598V13C19.9198 15.6 17.9298 17.84 15.3298 18C15.1398 18.01 14.9498 18.01 14.7598 18H5.75981C3.15981 18.16 0.919805 16.17 0.759805 13.57C0.749805 13.38 0.749805 13.19 0.759805 13V6C0.589805 3.49 2.4498 1.31 4.9498 1.06C5.2198 1.02 5.48981 1 5.75981 1H14.7598C15.0098 1 15.2598 1.01 15.5098 1.05C18.0398 1.27 19.9298 3.47 19.7598 6V7.45H17.6798C17.1398 7.45 16.6198 7.66 16.2398 8.05Z" stroke="#888893" stroke-width="1.2" stroke-linecap="round" stroke-linejoin="round"/>
</svg>
